<?xml version="1.0" encoding="utf-8"?>
<!-- Generator: Adobe Illustrator 25.0.0, SVG Export Plug-In . SVG Version: 6.00 Build 0)  -->
<svg version="1.1" id="Layer_1" xmlns="http://www.w3.org/2000/svg" xmlns:xlink="http://www.w3.org/1999/xlink" x="0px" y="0px"
	 viewBox="0 0 258.72 93.89" style="enable-background:new 0 0 258.72 93.89;" xml:space="preserve">
<style type="text/css">
	.st0{fill:#435FA9;}
	.st1{fill:#FFFFFF;stroke:#435FA9;stroke-miterlimit:10;}
</style>
<g>
	<path class="st0" d="M105.59,73.95c-0.19-0.22-0.26-0.52-0.2-0.9l4.9-40.06c0.05-0.38,0.19-0.68,0.41-0.9
		c0.22-0.22,0.52-0.33,0.9-0.33h12.51c0.38,0,0.67,0.11,0.86,0.33c0.19,0.22,0.26,0.52,0.2,0.9l-4.9,40.06
		c-0.06,0.38-0.2,0.68-0.45,0.9c-0.25,0.22-0.53,0.33-0.86,0.33h-12.59C106.04,74.28,105.78,74.17,105.59,73.95z"/>
	<path class="st0" d="M106.76,39.01c0.05-0.39-0.01-0.7-0.21-0.93c-0.2-0.22-0.46-0.34-0.8-0.34H94.14c-0.34,0-0.45-0.14-0.34-0.42
		l1.01-8.08c0-0.28,0.14-0.42,0.42-0.42h12.96l1.66-13.54h-27.5c-0.39,0-0.7,0.11-0.93,0.34c-0.22,0.23-0.37,0.53-0.42,0.93
		l-6.98,56.37c-0.06,0.39,0.01,0.7,0.21,0.93c0.2,0.22,0.49,0.34,0.88,0.34H88c0.39,0,0.71-0.11,0.97-0.34
		c0.25-0.22,0.41-0.53,0.46-0.93l2.61-21.29c0-0.28,0.14-0.42,0.42-0.42h11.61c0.39,0,0.7-0.11,0.93-0.34
		c0.22-0.22,0.36-0.53,0.42-0.93L106.76,39.01z"/>
	<path class="st0" d="M127.12,15.62c-0.2-0.22-0.49-0.34-0.88-0.34h-13.7l-1.66,13.54h13.76c0.34,0,0.63-0.11,0.88-0.34
		c0.25-0.22,0.41-0.53,0.46-0.93l1.35-11.02C127.38,16.16,127.31,15.85,127.12,15.62z"/>
	<path class="st0" d="M161.14,34.26c1.91,2.1,2.86,5.03,2.86,8.79c0,1.31-0.06,2.32-0.16,3.03l-3.35,26.98
		c-0.06,0.38-0.2,0.68-0.45,0.9s-0.53,0.33-0.86,0.33h-12.59c-0.33,0-0.59-0.11-0.78-0.33c-0.19-0.22-0.26-0.52-0.2-0.9l3.02-24.77
		l0.08-0.82c0-0.98-0.25-1.76-0.74-2.33c-0.49-0.57-1.12-0.86-1.88-0.86c-0.98,0-1.8,0.36-2.45,1.06c-0.65,0.71-1.06,1.69-1.23,2.94
		l-3.02,24.77c-0.06,0.38-0.2,0.68-0.45,0.9s-0.53,0.33-0.86,0.33H125.5c-0.33,0-0.59-0.11-0.78-0.33c-0.19-0.22-0.26-0.52-0.2-0.9
		L129.42,33c0.05-0.38,0.19-0.68,0.41-0.9c0.22-0.22,0.52-0.33,0.9-0.33h12.51c0.38,0,0.67,0.11,0.86,0.33
		c0.19,0.22,0.26,0.52,0.2,0.9l-0.25,2.21c-0.06,0.16-0.01,0.25,0.12,0.25c0.14,0,0.29-0.08,0.45-0.25
		c2.07-2.72,4.88-4.09,8.42-4.09C156.53,31.12,159.23,32.17,161.14,34.26z"/>
	<path class="st0" d="M191.87,32.1c0.22-0.22,0.52-0.33,0.9-0.33h12.51c0.38,0,0.67,0.11,0.86,0.33c0.19,0.22,0.26,0.52,0.21,0.9
		l-4.9,40.06c-0.06,0.38-0.2,0.68-0.45,0.9s-0.56,0.33-0.94,0.33h-12.51c-0.38,0-0.67-0.11-0.86-0.33c-0.19-0.22-0.26-0.52-0.2-0.9
		l0.33-2.29c0-0.16-0.04-0.27-0.12-0.33c-0.08-0.05-0.2,0.03-0.37,0.25c-2.18,2.83-5.07,4.25-8.66,4.25c-3.6,0-6.39-1.19-8.38-3.56
		c-1.99-2.37-3.04-5.68-3.15-9.93c0-0.05,0.01-0.12,0.04-0.2c0.03-0.08,0.01-0.18-0.04-0.29c-0.06-0.27-0.08-0.79-0.08-1.55
		c0-1.91,0.16-4.06,0.49-6.46c0.22-1.58,0.49-3.22,0.82-4.9c0.33-1.69,0.68-2.94,1.06-3.76l0.16-0.49c1.14-3.98,2.96-7.08,5.44-9.32
		c2.48-2.23,5.57-3.35,9.28-3.35c3.6,0,6.08,1.31,7.44,3.92c0.05,0.16,0.14,0.22,0.25,0.16c0.11-0.05,0.19-0.16,0.25-0.33l0.25-1.88
		C191.52,32.62,191.65,32.32,191.87,32.1z M188.93,53.02c0.16-1.31,0.25-2.56,0.25-3.76c0-1.09-0.03-1.91-0.08-2.45
		c-0.11-0.76-0.41-1.38-0.9-1.84c-0.49-0.46-1.09-0.69-1.8-0.69c-1.47,0-2.56,0.87-3.27,2.62c-0.65,2.02-1.09,4.06-1.31,6.13
		c-0.16,1.36-0.25,2.73-0.25,4.09c0,0.87,0.03,1.53,0.08,1.96c0.27,1.8,1.14,2.7,2.62,2.7c1.53,0,2.64-0.9,3.35-2.7
		C188.28,57,188.71,54.99,188.93,53.02z"/>
	<path class="st0" d="M242.39,34.26c1.91,2.1,2.86,5.03,2.86,8.79c0,1.31-0.06,2.32-0.17,3.03l-3.35,26.98
		c-0.06,0.38-0.2,0.68-0.45,0.9s-0.53,0.33-0.86,0.33h-12.59c-0.33,0-0.59-0.11-0.78-0.33c-0.19-0.22-0.26-0.52-0.2-0.9l3.02-24.77
		l0.08-0.82c0-0.98-0.25-1.76-0.74-2.33c-0.49-0.57-1.12-0.86-1.88-0.86c-0.98,0-1.8,0.36-2.45,1.06c-0.65,0.71-1.06,1.69-1.23,2.94
		l-3.02,24.77c-0.06,0.38-0.21,0.68-0.45,0.9c-0.25,0.22-0.53,0.33-0.86,0.33h-12.59c-0.33,0-0.59-0.11-0.78-0.33
		c-0.19-0.22-0.26-0.52-0.2-0.9l4.9-40.06c0.05-0.38,0.19-0.68,0.41-0.9c0.22-0.22,0.52-0.33,0.9-0.33h12.51
		c0.38,0,0.67,0.11,0.86,0.33c0.19,0.22,0.26,0.52,0.21,0.9l-0.25,2.21c-0.06,0.16-0.01,0.25,0.12,0.25c0.14,0,0.29-0.08,0.45-0.25
		c2.07-2.72,4.87-4.09,8.42-4.09C237.79,31.12,240.48,32.17,242.39,34.26z"/>
	<polygon class="st0" points="22.23,91.4 22,92.38 22.78,93.05 35.91,91.59 36.33,89.86 	"/>
	<g>
		<polygon class="st0" points="22.57,90.02 22.39,90.76 36.48,89.22 36.66,88.47 		"/>
		<path class="st0" d="M52.17,37.75l11.89-0.79c0.67-3.29,1.5-6.45,2.47-9.48c0.97-3.03,1.61-4.95,1.91-5.78l-1.01-2.13
			c0-0.07-1.42-0.39-4.26-0.95c-2.84-0.56-5.83-0.95-8.97-1.18L58,1.85l-0.56-1.01L44.09,2.41l-3.7,15.14
			c-7.03,0.97-12.49,3.24-16.38,6.79c-3.89,3.55-5.83,8.1-5.83,13.63c0,4.04,1.23,7.18,3.7,9.42c2.47,2.24,5.91,4.34,10.32,6.28
			c3.44,1.35,5.87,2.43,7.29,3.25c1.42,0.82,2.13,1.87,2.13,3.14c0,0.82-0.47,1.5-1.4,2.02c-0.94,0.53-2.19,0.79-3.76,0.79
			c-2.17,0-3.81-0.75-4.94-2.24c-1.12-1.5-1.57-3.37-1.35-5.61l-12.79,0.9c-0.45,2.17-1.14,4.84-2.08,8.02
			c-0.93,3.18-1.55,5.25-1.85,6.23l1.01,1.68c0,0.07,1.23,0.5,3.7,1.29c2.47,0.79,5.16,1.4,8.08,1.85l-3.53,14.39l14.09-1.55
			l3.01-12.4c7.93-0.6,13.98-2.62,18.17-6.06c4.19-3.44,6.28-8.04,6.28-13.8c0-3.22-1.01-6.06-3.03-8.53
			c-2.02-2.47-4.77-4.37-8.24-5.72c-3.48-1.35-5.44-2.13-5.89-2.36c-2.17-0.97-3.76-1.81-4.77-2.52c-1.01-0.71-1.51-1.59-1.51-2.64
			c0-1.05,0.47-1.89,1.4-2.52c0.93-0.63,2.15-0.95,3.65-0.95c1.64,0,2.95,0.41,3.93,1.23c0.97,0.82,1.46,2.02,1.46,3.59l-0.22,1.8
			L52.17,37.75z"/>
	</g>
	<path class="st1" d="M67.14,60.33c0.48-0.38,1.25-1.05,2.3-2.01l1.45,0.25l1.26,3.02c-3.19,3.69-5.75,6.24-7.68,7.65
		c-1.93,1.4-3.78,2.11-5.54,2.11c-2.77,0-4.15-1.4-4.15-4.22c1.89-11.16,2.83-17.27,2.83-18.32c0-0.71-0.17-1.24-0.5-1.57
		c-0.34-0.34-0.86-0.5-1.57-0.5h-1.76l0.75-5.16c3.4,0,8.08-0.25,14.04-0.76l1.01,1.26c-0.67,2.6-1.35,5.65-2.05,9.16
		c-0.69,3.5-1.23,6.66-1.6,9.47l0.25,0.19C66.33,60.9,66.65,60.71,67.14,60.33z M59.58,36.35c-0.9-0.88-1.35-2.12-1.35-3.71
		c0-2.27,0.66-4.08,1.98-5.44c1.32-1.36,3.07-2.05,5.26-2.05c1.64,0,2.91,0.44,3.81,1.32c0.9,0.88,1.35,2.14,1.35,3.78
		c0,2.23-0.66,4.02-1.98,5.38c-1.32,1.36-3.05,2.05-5.19,2.05C61.78,37.67,60.49,37.23,59.58,36.35z"/>
</g>
</svg>
